<svg width="29" height="29" viewBox="0 0 29 29" fill="none" xmlns="http://www.w3.org/2000/svg">
<path d="M4.38563 13.2853C4.27383 13.1812 4.14263 13.1002 3.99952 13.0468C3.85641 12.9934 3.70418 12.9688 3.55154 12.9743C3.3989 12.9797 3.24884 13.0152 3.10991 13.0787C2.97098 13.1421 2.84591 13.2323 2.74184 13.3441C2.63778 13.4559 2.55675 13.5871 2.50339 13.7302C2.45002 13.8734 2.42537 14.0256 2.43084 14.1782C2.43631 14.3309 2.47178 14.4809 2.53525 14.6199C2.59871 14.7588 2.68892 14.8839 2.80072 14.9879L13.3398 24.7927C13.5573 24.9952 13.844 25.1067 14.1411 25.1045C14.4381 25.1023 14.7231 24.9864 14.9375 24.7807L25.3291 14.8185C25.4418 14.7135 25.5325 14.5871 25.5959 14.4467C25.6593 14.3063 25.6941 14.1547 25.6984 14.0007C25.7027 13.8467 25.6764 13.6934 25.621 13.5497C25.5655 13.406 25.4821 13.2747 25.3755 13.1635C25.2689 13.0523 25.1413 12.9634 25 12.9019C24.8588 12.8405 24.7067 12.8077 24.5527 12.8055C24.3986 12.8033 24.2457 12.8317 24.1028 12.8891C23.9598 12.9465 23.8297 13.0318 23.72 13.1399L14.1203 22.3426L4.38563 13.2853Z" fill="#363636"/>
</svg>
