<svg width="18" height="18" viewBox="0 0 18 18" fill="none" xmlns="http://www.w3.org/2000/svg">
<path d="M9.07764 2.62972C9.14199 2.56162 9.1923 2.48152 9.22569 2.39398C9.25908 2.30644 9.2749 2.21319 9.27226 2.11953C9.26961 2.02588 9.24854 1.93367 9.21025 1.84816C9.17196 1.76265 9.11721 1.68552 9.04911 1.62117C8.98102 1.55682 8.90091 1.50651 8.81338 1.47312C8.72584 1.43973 8.63258 1.42391 8.53893 1.42656C8.44528 1.42921 8.35306 1.45027 8.26755 1.48856C8.18205 1.52685 8.10491 1.5816 8.04057 1.6497L1.97786 8.06903C1.85266 8.20146 1.7829 8.37679 1.7829 8.55904C1.7829 8.74128 1.85266 8.91661 1.97786 9.04904L8.04056 15.4691C8.10449 15.5387 8.1816 15.5949 8.26743 15.6344C8.35325 15.6739 8.44607 15.696 8.5405 15.6994C8.63494 15.7027 8.72909 15.6873 8.81751 15.6539C8.90592 15.6206 8.98683 15.57 9.05553 15.5051C9.12423 15.4403 9.17936 15.3624 9.21771 15.276C9.25605 15.1897 9.27686 15.0966 9.27892 15.0021C9.28098 14.9076 9.26424 14.8137 9.22969 14.7257C9.19514 14.6378 9.14345 14.5576 9.07764 14.4898L3.47713 8.55904L9.07764 2.62972Z" fill="white"/>
</svg>
