<svg width="116" height="160" viewBox="0 0 116 160" fill="none" xmlns="http://www.w3.org/2000/svg">
<path d="M31.9265 123.269H0V159.818H31.9265V123.269Z" fill="#2E69E7"/>
<path d="M98.1833 16.7645C87.7671 6.40997 73.4372 0 57.5664 0C25.7631 0 0 25.7631 0 57.5663V115.133H57.5664C89.3696 115.133 115.133 89.3696 115.133 57.5663C115.133 41.6339 108.661 27.1807 98.1833 16.7645ZM55.9947 88.9998C39.6308 88.9998 26.3795 75.7484 26.3795 59.3845C26.3795 43.0207 39.6308 29.7693 55.9947 29.7693C72.3586 29.7693 85.6099 43.0207 85.6099 59.3845C85.6099 75.7484 72.3586 88.9998 55.9947 88.9998Z" fill="#2E69E7"/>
</svg>
